<svg xmlns="http://www.w3.org/2000/svg" xmlns:xlink="http://www.w3.org/1999/xlink" aria-hidden="true" role="img"
  class="iconify iconify--carbon" width="1em" height="1em" preserveAspectRatio="xMidYMid meet" viewBox="0 0 32 32">
  <path d="M30 23h-6a2 2 0 0 1-2-2V11a2 2 0 0 1 2-2h6v2h-6v10h4v-4h-2v-2h4z" fill="currentColor"></path>
  <path d="M18 9l-2 13l-2-13h-2l2.52 14h2.96L20 9h-2z" fill="currentColor"></path>
  <path d="M8 23H2v-2h6v-4H4a2 2 0 0 1-2-2v-4a2 2 0 0 1 2-2h6v2H4v4h4a2 2 0 0 1 2 2v4a2 2 0 0 1-2 2z"
    fill="currentColor"></path>
</svg>
